# xmcd
#
# Track frame offsets:
# 150
# 11452
# 21247
# 31542
# 40910
# 51642
# 65212
# 75010
# 86177
# 95885
# 105897
#
# Disc length: 1606 seconds
#
#
# Revision: 0
# Processed by: cddbd v1.5.2PL0 Copyright (c) Steve Scherf et al.
# Submitted via: FreeRIP 2.951 
#
DISCID=8106440b
DTITLE=Los Panchos - Celoso
DYEAR=1991
DGENRE=Blues
TTITLE0=Celoso (Jealous heart)
TTITLE1=Para mi
TTITLE2=Hey! Amigo! (Hey good lookin)
TTITLE3=Te doy dos horas
TTITLE4=Si Dios quisiera
TTITLE5=Llora por mi
TTITLE6=Carbón
TTITLE7=Solitario (Oh lonesome me)
TTITLE8=Al fin
TTITLE9=Allá en la eternidad
TTITLE10=Te lo dije
EXTD=
EXTT0=
EXTT1=
EXTT2=
EXTT3=
EXTT4=
EXTT5=
EXTT6=
EXTT7=
EXTT8=
EXTT9=
EXTT10=
PLAYORDER=
